<svg width="22" height="28" viewBox="0 0 22 28" fill="none" xmlns="http://www.w3.org/2000/svg">
<path d="M10.764 27.36L0.36 18.504V14.724L7.056 20.412C7.584 20.868 8.016 21.264 8.352 21.6C8.688 21.936 8.904 22.176 9 22.32H9.36C9.336 22.008 9.3 21.588 9.252 21.06C9.204 20.508 9.18 19.968 9.18 19.44V0.719999H12.42V19.44C12.42 19.968 12.396 20.508 12.348 21.06C12.324 21.588 12.288 22.008 12.24 22.32H12.6C12.84 21.96 13.5 21.312 14.58 20.376L21.24 14.688V18.468L10.764 27.36Z" fill="#959D99"/>
</svg>
